<?xml version="1.0" encoding="utf-8"?>
<svg viewBox="50.498 128.709 317.713 118.799" xmlns="http://www.w3.org/2000/svg">
  <defs>
    <clipPath id="clip1">
      <path d="M 606 218 L 668.300781 218 L 668.300781 286 L 606 286 Z M 606 218 "/>
    </clipPath>
    <clipPath id="clip2">
      <path d="M 95 307 L 109 307 L 109 320.859375 L 95 320.859375 Z M 95 307 "/>
    </clipPath>
    <clipPath id="clip3">
      <path d="M 124 296 L 135 296 L 135 320.859375 L 124 320.859375 Z M 124 296 "/>
    </clipPath>
    <clipPath id="clip4">
      <path d="M 149 307 L 151 307 L 151 320.859375 L 149 320.859375 Z M 149 307 "/>
    </clipPath>
    <clipPath id="clip5">
      <path d="M 167 296 L 169 296 L 169 320.859375 L 167 320.859375 Z M 167 296 "/>
    </clipPath>
    <clipPath id="clip6">
      <path d="M 185 296 L 187 296 L 187 320.859375 L 185 320.859375 Z M 185 296 "/>
    </clipPath>
    <clipPath id="clip7">
      <path d="M 203 307 L 205 307 L 205 320.859375 L 203 320.859375 Z M 203 307 "/>
    </clipPath>
    <clipPath id="clip8">
      <path d="M 242 296 L 256 296 L 256 320.859375 L 242 320.859375 Z M 242 296 "/>
    </clipPath>
    <clipPath id="clip9">
      <path d="M 270 301 L 274 301 L 274 320.859375 L 270 320.859375 Z M 270 301 "/>
    </clipPath>
    <clipPath id="clip10">
      <path d="M 289 307 L 300 307 L 300 320.859375 L 289 320.859375 Z M 289 307 "/>
    </clipPath>
    <clipPath id="clip11">
      <path d="M 314 307 L 328 307 L 328 320.859375 L 314 320.859375 Z M 314 307 "/>
    </clipPath>
    <clipPath id="clip12">
      <path d="M 363 307 L 373 307 L 373 320.859375 L 363 320.859375 Z M 363 307 "/>
    </clipPath>
    <clipPath id="clip13">
      <path d="M 387 301 L 390 301 L 390 320.859375 L 387 320.859375 Z M 387 301 "/>
    </clipPath>
    <clipPath id="clip14">
      <path d="M 404 307 L 414 307 L 414 320.859375 L 404 320.859375 Z M 404 307 "/>
    </clipPath>
    <clipPath id="clip15">
      <path d="M 427 302 L 433 302 L 433 320.859375 L 427 320.859375 Z M 427 302 "/>
    </clipPath>
    <clipPath id="clip16">
      <path d="M 445 307 L 459 307 L 459 320.859375 L 445 320.859375 Z M 445 307 "/>
    </clipPath>
  </defs>
  <g id="surface1" transform="matrix(0.471124, 0, 0, 0.401246, 51.317577, 130.826065)" style="">
    <path style="fill-rule: nonzero; fill-opacity: 1; fill: rgb(255, 255, 255); stroke-miterlimit: 1; stroke: rgb(0, 0, 0); stroke-width: 0.11463px;" d="M 23.285156 285.738281 C 16.652344 285.738281 11.109375 284.398438 6.664063 281.722656 C 2.21875 279.046875 0 275.726563 0 271.765625 C 0 269.472656 0.699219 267.496094 2.097656 265.820313 C 3.496094 264.164063 5.179688 263.320313 7.160156 263.320313 C 9.214844 263.320313 12.15625 264.234375 15.980469 266.058594 C 19.804688 267.882813 22.664063 268.792969 24.566406 268.792969 C 26.078125 268.792969 27.332031 268.429688 28.320313 267.695313 C 29.3125 266.949219 29.808594 266.039063 29.808594 264.953125 C 29.808594 263.128906 26.796875 260.992188 20.78125 258.554688 L 19.617188 258.078125 C 12.710938 255.210938 7.996094 252.355469 5.46875 249.546875 C 2.949219 246.734375 1.691406 243.179688 1.691406 238.875 C 1.691406 233.164063 3.902344 228.355469 8.324219 224.433594 C 10.578125 222.496094 13.09375 221.039063 15.867188 220.070313 C 18.632813 219.09375 21.75 218.613281 25.207031 218.613281 C 31.339844 218.613281 36.539063 219.886719 40.808594 222.476563 C 45.074219 225.054688 47.210938 228.140625 47.210938 231.714844 C 47.210938 233.925781 46.464844 235.789063 44.972656 237.300781 C 43.480469 238.8125 41.644531 239.574219 39.472656 239.574219 C 38.070313 239.574219 35.65625 238.8125 32.222656 237.300781 C 28.785156 235.789063 26.160156 235.03125 24.328125 235.03125 C 23.050781 235.03125 22.023438 235.324219 21.246094 235.925781 C 20.472656 236.523438 20.085938 237.316406 20.085938 238.292969 C 20.085938 240.035156 22.566406 241.859375 27.535156 243.761719 C 29.667969 244.539063 31.511719 245.296875 33.070313 246.03125 C 38.578125 248.515625 42.554688 251.175781 44.996094 254.03125 C 47.445313 256.878906 48.667969 260.300781 48.667969 264.253906 C 48.667969 270.390625 46.277344 275.492188 41.476563 279.582031 C 36.6875 283.675781 30.621094 285.738281 23.285156 285.738281 "/>
    <path style="fill-rule: nonzero; fill-opacity: 1; fill: rgb(255, 255, 255); stroke: rgb(0, 0, 0); stroke-width: 0.11463px;" d="M 57.171875 271.066406 L 57.171875 233.285156 C 57.171875 228.632813 57.933594 225.152344 59.464844 222.863281 C 60.996094 220.578125 63.359375 219.429688 66.539063 219.429688 C 68.324219 219.429688 69.984375 219.9375 71.523438 220.960938 C 73.046875 221.988281 74.378906 223.5625 75.503906 225.65625 C 77.441406 223.527344 79.648438 221.949219 82.113281 220.941406 C 84.578125 219.9375 87.378906 219.429688 90.523438 219.429688 C 92.546875 219.429688 94.4375 219.605469 96.199219 219.953125 C 97.96875 220.304688 99.644531 220.867188 101.234375 221.640625 C 104.34375 223.074219 107.019531 225.292969 109.265625 228.273438 C 112.027344 225.171875 114.890625 222.921875 117.855469 221.523438 C 120.824219 220.125 124.269531 219.429688 128.191406 219.429688 C 134.828125 219.429688 140.023438 221.582031 143.796875 225.890625 C 147.558594 230.199219 149.4375 236.277344 149.4375 244.109375 L 149.4375 271.066406 C 149.4375 275.679688 148.664063 279.121094 147.113281 281.375 C 145.558594 283.621094 143.1875 284.746094 140.011719 284.746094 C 136.902344 284.746094 134.578125 283.640625 133.023438 281.425781 C 131.46875 279.214844 130.695313 275.765625 130.695313 271.066406 L 130.695313 249.820313 C 130.695313 244.921875 130.007813 241.320313 128.625 239.011719 C 127.25 236.695313 125.085938 235.550781 122.140625 235.550781 C 118.878906 235.550781 116.488281 236.664063 114.976563 238.894531 C 113.464844 241.125 112.707031 244.691406 112.707031 249.582031 L 112.707031 271.066406 C 112.707031 275.679688 111.929688 279.121094 110.375 281.375 C 108.824219 283.621094 106.460938 284.746094 103.273438 284.746094 C 100.171875 284.746094 97.824219 283.621094 96.230469 281.375 C 94.640625 279.121094 93.84375 275.679688 93.84375 271.066406 L 93.84375 249.820313 C 93.84375 244.808594 93.164063 241.183594 91.808594 238.933594 C 90.441406 236.675781 88.3125 235.550781 85.402344 235.550781 C 82.144531 235.550781 79.757813 236.664063 78.238281 238.894531 C 76.730469 241.125 75.96875 244.691406 75.96875 249.582031 L 75.96875 271.066406 C 75.96875 275.679688 75.195313 279.121094 73.644531 281.375 C 72.09375 283.621094 69.722656 284.746094 66.539063 284.746094 C 63.433594 284.746094 61.097656 283.621094 59.523438 281.394531 C 57.953125 279.15625 57.171875 275.726563 57.171875 271.066406 "/>
    <path style="fill-rule: nonzero; fill-opacity: 1; fill: rgb(255, 255, 255); stroke: rgb(0, 0, 0); stroke-width: 0.11463px;" d="M 177.5625 251.96875 C 177.5625 256.589844 178.675781 260.296875 180.90625 263.105469 C 183.136719 265.925781 186.078125 267.335938 189.726563 267.335938 C 193.175781 267.335938 196.054688 265.898438 198.339844 263.035156 C 200.632813 260.160156 201.769531 256.472656 201.769531 251.96875 C 201.769531 247.507813 200.652344 243.878906 198.402344 241.105469 C 196.148438 238.328125 193.253906 236.949219 189.726563 236.949219 C 186.195313 236.949219 183.28125 238.347656 180.992188 241.144531 C 178.699219 243.941406 177.5625 247.546875 177.5625 251.96875 M 202.355469 278.222656 C 200.53125 280.519531 198.230469 282.285156 195.464844 283.527344 C 192.6875 284.765625 189.746094 285.386719 186.644531 285.386719 C 178.613281 285.386719 171.839844 282.230469 166.347656 275.917969 C 160.859375 269.609375 158.113281 261.707031 158.113281 252.207031 C 158.113281 242.847656 160.949219 234.972656 166.617188 228.574219 C 172.28125 222.164063 179.1875 218.964844 187.339844 218.964844 C 190.519531 218.964844 193.320313 219.492188 195.71875 220.53125 C 198.128906 221.582031 200.339844 223.289063 202.355469 225.65625 C 203.367188 223.71875 204.660156 222.21875 206.226563 221.195313 C 207.800781 220.164063 209.5 219.660156 211.324219 219.660156 C 214.464844 219.660156 216.789063 220.769531 218.308594 222.980469 C 219.824219 225.191406 220.578125 228.632813 220.578125 233.285156 L 220.578125 271.066406 C 220.578125 275.679688 219.804688 279.121094 218.246094 281.375 C 216.699219 283.621094 214.394531 284.746094 211.324219 284.746094 C 209.265625 284.746094 207.515625 284.222656 206.085938 283.171875 C 204.652344 282.128906 203.40625 280.472656 202.355469 278.222656 "/>
    <path style="fill-rule: nonzero; fill-opacity: 1; fill: rgb(255, 255, 255); stroke: rgb(0, 0, 0); stroke-width: 0.11463px;" d="M 233.621094 271.066406 L 233.621094 233.285156 C 233.621094 228.746094 234.390625 225.332031 235.921875 223.058594 C 237.453125 220.789063 239.808594 219.660156 242.996094 219.660156 C 244.898438 219.660156 246.578125 220.164063 248.058594 221.175781 C 249.535156 222.109375 250.832031 223.59375 251.957031 225.65625 C 253.894531 223.5625 255.953125 221.988281 258.132813 220.941406 C 259.292969 220.394531 260.378906 219.992188 261.390625 219.71875 C 262.398438 219.453125 263.503906 219.3125 264.707031 219.3125 C 267.230469 219.3125 269.449219 220.222656 271.371094 222.070313 C 273.292969 223.914063 274.253906 226.105469 274.253906 228.632813 C 274.253906 232.351563 270.800781 235.492188 263.890625 238.058594 C 263.035156 238.367188 262.136719 238.679688 261.1875 239.011719 C 260.234375 239.339844 259.273438 239.765625 258.304688 240.269531 C 255.933594 241.398438 254.363281 242.640625 253.582031 244.019531 C 252.808594 245.390625 252.425781 247.894531 252.425781 251.503906 L 252.425781 271.066406 C 252.425781 275.679688 251.648438 279.121094 250.09375 281.375 C 248.542969 283.621094 246.171875 284.746094 242.996094 284.746094 C 239.886719 284.746094 237.546875 283.621094 235.976563 281.394531 C 234.410156 279.15625 233.621094 275.726563 233.621094 271.066406 "/>
    <path style="fill-rule: nonzero; fill-opacity: 1; fill: rgb(255, 255, 255); stroke: rgb(0, 0, 0); stroke-width: 0.11463px;" d="M 291.167969 237.761719 L 290.46875 237.761719 C 287.207031 237.761719 284.625 237.03125 282.722656 235.570313 C 280.824219 234.117188 279.871094 232.160156 279.871094 229.671875 C 279.871094 227.117188 280.804688 225.132813 282.667969 223.734375 C 283.597656 223.039063 284.804688 222.457031 286.277344 222.007813 C 287.746094 221.5625 289.382813 221.34375 291.167969 221.34375 L 291.167969 213.082031 C 291.167969 208.464844 291.941406 205.03125 293.492188 202.78125 C 295.050781 200.523438 297.414063 199.398438 300.597656 199.398438 C 303.738281 199.398438 306.078125 200.523438 307.613281 202.78125 C 309.148438 205.03125 309.917969 208.464844 309.917969 213.082031 L 309.917969 221.34375 L 311.542969 221.34375 C 315.269531 221.34375 318.171875 222.089844 320.246094 223.5625 C 322.324219 225.039063 323.359375 227.074219 323.359375 229.671875 C 323.359375 232.316406 322.355469 234.3125 320.335938 235.691406 C 318.316406 237.070313 315.351563 237.761719 311.429688 237.761719 L 309.917969 237.761719 L 309.917969 271.066406 C 309.917969 275.679688 309.152344 279.121094 307.648438 281.375 C 306.128906 283.621094 303.785156 284.746094 300.597656 284.746094 C 297.492188 284.746094 295.144531 283.621094 293.558594 281.375 C 291.960938 279.121094 291.167969 275.679688 291.167969 271.066406 "/>
    <path style="fill-rule: nonzero; fill-opacity: 1; stroke-width: 2.29261px; fill: rgb(255, 255, 255); stroke: rgb(0, 0, 0);" d="M 384.550781 225.25 C 386.570313 223.113281 388.816406 221.582031 391.273438 220.671875 C 393.742188 219.757813 396.875 219.3125 400.683594 219.3125 C 408.054688 219.3125 413.710938 221.429688 417.644531 225.65625 C 421.59375 229.882813 423.554688 236.039063 423.554688 244.109375 L 423.554688 271.066406 C 423.554688 275.679688 422.777344 279.121094 421.230469 281.375 C 419.679688 283.621094 417.308594 284.746094 414.125 284.746094 C 411.023438 284.746094 408.671875 283.621094 407.082031 281.375 C 405.492188 279.121094 404.699219 275.679688 404.699219 271.066406 L 404.699219 249.820313 C 404.699219 244.539063 403.910156 240.792969 402.339844 238.582031 C 400.765625 236.375 398.179688 235.265625 394.566406 235.265625 C 391.230469 235.265625 388.726563 236.410156 387.054688 238.714844 C 385.386719 241.023438 384.550781 244.652344 384.550781 249.582031 L 384.550781 271.066406 C 384.550781 275.679688 383.777344 279.121094 382.222656 281.375 C 380.671875 283.621094 378.304688 284.746094 375.121094 284.746094 C 372.019531 284.746094 369.675781 283.621094 368.109375 281.398438 C 366.53125 279.15625 365.75 275.726563 365.75 271.066406 L 365.75 206.679688 C 365.75 202.0625 366.519531 198.605469 368.042969 196.335938 C 369.582031 194.066406 371.941406 192.941406 375.121094 192.941406 C 378.265625 192.941406 380.621094 194.089844 382.199219 196.394531 C 383.769531 198.699219 384.550781 202.140625 384.550781 206.679688 "/>
    <path style="fill-rule: nonzero; fill-opacity: 1; fill: rgb(255, 250, 250); stroke-width: 2.29261px; stroke: rgb(0, 0, 0);" d="M 451.671875 251.988281 C 451.671875 256.777344 452.820313 260.644531 455.113281 263.601563 C 457.402344 266.5625 460.390625 268.035156 464.074219 268.035156 C 467.722656 268.035156 470.703125 266.5625 473.007813 263.601563 C 475.320313 260.644531 476.472656 256.777344 476.472656 251.988281 C 476.472656 247.410156 475.292969 243.632813 472.921875 240.679688 C 470.558594 237.726563 467.609375 236.25 464.074219 236.25 C 460.503906 236.25 457.546875 237.722656 455.199219 240.65625 C 452.851563 243.59375 451.671875 247.371094 451.671875 251.988281 M 432.230469 252.222656 C 432.230469 242.402344 435.230469 234.335938 441.226563 228.046875 C 447.21875 221.761719 454.839844 218.613281 464.074219 218.613281 C 473.277344 218.613281 480.863281 221.761719 486.839844 228.046875 C 492.816406 234.335938 495.804688 242.402344 495.804688 252.222656 C 495.804688 261.984375 492.835938 270.027344 486.898438 276.378906 C 480.953125 282.722656 473.351563 285.910156 464.074219 285.910156 C 454.878906 285.910156 447.269531 282.75 441.257813 276.402344 C 435.238281 270.078125 432.230469 262.023438 432.230469 252.222656 "/>
    <path style="fill-rule: nonzero; fill-opacity: 1; fill: rgb(255, 255, 255); stroke-width: 2.29261px; stroke: rgb(0, 0, 0);" d="M 505.121094 271.066406 L 505.121094 233.285156 C 505.121094 228.632813 505.886719 225.152344 507.414063 222.863281 C 508.953125 220.578125 511.3125 219.429688 514.488281 219.429688 C 516.277344 219.429688 517.933594 219.9375 519.472656 220.960938 C 521.003906 221.988281 522.332031 223.5625 523.460938 225.65625 C 525.398438 223.527344 527.597656 221.949219 530.0625 220.941406 C 532.527344 219.9375 535.335938 219.429688 538.476563 219.429688 C 540.492188 219.429688 542.382813 219.605469 544.152344 219.953125 C 545.917969 220.304688 547.59375 220.867188 549.1875 221.640625 C 552.285156 223.074219 554.96875 225.292969 557.222656 228.273438 C 559.976563 225.171875 562.839844 222.921875 565.808594 221.523438 C 568.78125 220.125 572.21875 219.429688 576.136719 219.429688 C 582.777344 219.429688 587.976563 221.582031 591.742188 225.890625 C 595.507813 230.199219 597.390625 236.277344 597.390625 244.109375 L 597.390625 271.066406 C 597.390625 275.679688 596.613281 279.121094 595.058594 281.375 C 593.511719 283.621094 591.140625 284.746094 587.953125 284.746094 C 584.855469 284.746094 582.527344 283.640625 580.972656 281.425781 C 579.421875 279.214844 578.644531 275.765625 578.644531 271.066406 L 578.644531 249.820313 C 578.644531 244.921875 577.957031 241.320313 576.582031 239.011719 C 575.199219 236.695313 573.039063 235.550781 570.082031 235.550781 C 566.828125 235.550781 564.4375 236.664063 562.925781 238.894531 C 561.414063 241.125 560.65625 244.691406 560.65625 249.582031 L 560.65625 271.066406 C 560.65625 275.679688 559.882813 279.121094 558.324219 281.375 C 556.773438 283.621094 554.410156 284.746094 551.226563 284.746094 C 548.117188 284.746094 545.773438 283.621094 544.179688 281.375 C 542.589844 279.121094 541.792969 275.679688 541.792969 271.066406 L 541.792969 249.820313 C 541.792969 244.808594 541.113281 241.183594 539.761719 238.933594 C 538.398438 236.675781 536.265625 235.550781 533.355469 235.550781 C 530.089844 235.550781 527.703125 236.664063 526.191406 238.894531 C 524.675781 241.125 523.921875 244.691406 523.921875 249.582031 L 523.921875 271.066406 C 523.921875 275.679688 523.148438 279.121094 521.59375 281.375 C 520.039063 283.621094 517.671875 284.746094 514.488281 284.746094 C 511.390625 284.746094 509.046875 283.621094 507.472656 281.394531 C 505.902344 279.15625 505.121094 275.726563 505.121094 271.066406 "/>
    <g clip-path="url(#clip1)" clip-rule="nonzero">
      <path style="fill-rule: nonzero; fill-opacity: 1; fill: rgb(255, 255, 255); stroke-width: 2.29261px; stroke: rgb(0, 0, 0);" d="M 625.15625 245.160156 L 649.964844 245.160156 C 649.964844 243.683594 649.617188 242.269531 648.941406 240.929688 C 648.261719 239.585938 647.320313 238.347656 646.121094 237.179688 C 643.746094 235.046875 640.976563 233.976563 637.792969 233.976563 C 634.609375 233.976563 631.886719 234.972656 629.613281 236.96875 C 627.34375 238.972656 625.855469 241.707031 625.15625 245.160156 M 625.390625 257.441406 C 625.78125 260.902344 627.214844 263.632813 629.703125 265.652344 C 632.179688 267.675781 635.484375 268.679688 639.597656 268.679688 C 643.128906 268.679688 647.058594 267.648438 651.386719 265.613281 C 655.71875 263.574219 658.386719 262.570313 659.390625 262.570313 C 661.648438 262.570313 663.460938 263.242188 664.835938 264.605469 C 666.207031 265.960938 666.902344 267.714844 666.902344 269.839844 C 666.902344 273.839844 664.085938 277.46875 658.453125 280.730469 C 652.832031 283.988281 646.210938 285.621094 638.605469 285.621094 C 629.335938 285.621094 621.589844 282.457031 615.378906 276.132813 C 609.171875 269.804688 606.0625 261.863281 606.0625 252.316406 C 606.0625 242.730469 609.082031 234.738281 615.117188 228.335938 C 621.152344 221.929688 628.667969 218.726563 637.679688 218.726563 C 646.367188 218.726563 653.644531 221.738281 659.511719 227.769531 C 665.371094 233.808594 668.300781 241.164063 668.300781 249.820313 C 668.300781 252.613281 667.644531 254.566406 666.347656 255.71875 C 665.042969 256.863281 662.59375 257.441406 658.980469 257.441406 "/>
    </g>
    <path style="stroke: none; fill-rule: nonzero; fill-opacity: 1; fill: rgb(0, 106, 212);" d="M 444.226563 176.332031 L 444.1875 164.941406 L 444.328125 90.992188 L 372.4375 51.890625 L 372.296875 125.835938 L 372.335938 137.222656 C 372.460938 139.714844 374.042969 141.777344 376.585938 143.15625 L 448.476563 182.261719 C 445.9375 180.886719 444.351563 178.820313 444.226563 176.332031 "/>
    <path style="stroke: none; fill-rule: nonzero; fill-opacity: 1; fill: rgb(0, 106, 212);" d="M 356.558594 39.105469 L 284.664063 -0.00390625 L 405.355469 36.902344 L 477.246094 76.007813 Z M 356.558594 39.105469 "/>
    <path style="stroke: none; fill-rule: nonzero; fill-opacity: 1; fill: rgb(0, 106, 212);" d="M 237.320313 109.730469 L 165.429688 70.621094 L 284.664063 -0.00390625 L 356.558594 39.105469 Z M 237.320313 109.730469 "/>
    <path style="stroke: none; fill-rule: nonzero; fill-opacity: 1; fill: rgb(0, 106, 212);" d="M 237.179688 205.433594 L 237.160156 194.039063 L 237.320313 109.730469 L 165.429688 70.621094 L 165.273438 154.929688 L 165.292969 166.320313 C 165.414063 168.808594 166.996094 170.871094 169.535156 172.246094 C 193.496094 185.285156 217.460938 198.324219 241.425781 211.355469 C 238.890625 209.976563 237.304688 207.921875 237.179688 205.433594 "/>
    <path style="stroke: none; fill-rule: nonzero; fill-opacity: 1; fill: rgb(31, 142, 250);" d="M 356.558594 39.105469 L 477.246094 76.007813 L 477.089844 160.320313 L 477.066406 171.382813 C 476.710938 177.234375 469.492188 182.640625 460.601563 183.894531 C 451.6875 185.148438 444.496094 181.757813 444.226563 176.335938 L 444.1875 164.941406 L 444.328125 90.992188 L 356.667969 64.226563 L 270.179688 115.472656 L 270.035156 189.421875 L 270.019531 200.480469 C 269.664063 206.335938 262.449219 211.742188 253.570313 212.988281 C 244.660156 214.246094 237.453125 210.855469 237.179688 205.433594 L 237.160156 194.039063 L 237.320313 109.730469 "/>
    <g clip-path="url(#clip2)" clip-rule="nonzero"/>
    <g clip-path="url(#clip3)" clip-rule="nonzero"/>
    <g clip-path="url(#clip4)" clip-rule="nonzero"/>
    <g clip-path="url(#clip5)" clip-rule="nonzero"/>
    <g clip-path="url(#clip6)" clip-rule="nonzero"/>
    <g clip-path="url(#clip7)" clip-rule="nonzero"/>
    <g clip-path="url(#clip8)" clip-rule="nonzero"/>
    <g clip-path="url(#clip9)" clip-rule="nonzero"/>
    <g clip-path="url(#clip10)" clip-rule="nonzero"/>
    <g clip-path="url(#clip11)" clip-rule="nonzero"/>
    <g clip-path="url(#clip12)" clip-rule="nonzero"/>
    <g clip-path="url(#clip13)" clip-rule="nonzero"/>
    <g clip-path="url(#clip14)" clip-rule="nonzero"/>
    <g clip-path="url(#clip15)" clip-rule="nonzero"/>
    <g clip-path="url(#clip16)" clip-rule="nonzero"/>
  </g>
</svg>